<?xml version="1.0" encoding="UTF-8"?>
<svg version="1.1" xmlns="http://www.w3.org/2000/svg" width="512" height="512">
<path d="M0 0 C1.42054765 -0.00373909 2.84109325 -0.00834164 4.2616356 -0.01373065 C8.15621946 -0.02594432 12.05071732 -0.0257021 15.94531596 -0.02334189 C20.14929245 -0.02293331 24.35324152 -0.03397692 28.5572052 -0.04345703 C36.79065147 -0.06005951 45.0240691 -0.06556626 53.25753071 -0.06668179 C59.95205945 -0.0676327 66.64657875 -0.07174519 73.34110451 -0.07808304 C92.3304116 -0.09569411 111.3196961 -0.10492223 130.30901142 -0.10342209 C131.84411588 -0.10330222 131.84411588 -0.10330222 133.41023254 -0.10317993 C134.4348884 -0.10309817 135.45954426 -0.10301641 136.5152503 -0.10293217 C153.11601071 -0.10211951 169.71668033 -0.12125242 186.31741448 -0.14945666 C203.37184766 -0.17820255 220.42623658 -0.19199599 237.48069459 -0.19026911 C247.05184756 -0.18960576 256.62290537 -0.19507411 266.19403648 -0.21662521 C274.3442624 -0.23485953 282.49435003 -0.23916595 290.64458754 -0.22560637 C294.80004141 -0.2190878 298.95523018 -0.21891905 303.11065865 -0.23631287 C306.92118983 -0.2520984 310.73124692 -0.24912469 314.54176692 -0.2317446 C316.55964827 -0.22724757 318.57754465 -0.24228896 320.59536809 -0.25822389 C334.99811958 -0.14976118 347.26412947 4.52361346 357.82893372 14.39242554 C370.72024829 27.99105118 372.59511351 42.60579369 372.52911377 60.49951172 C372.53329104 62.34638014 372.53877071 64.193246 372.54543358 66.04010713 C372.55985473 71.09443377 372.55565391 76.14859689 372.54826677 81.20293236 C372.5435293 86.66173701 372.55604991 92.12050658 372.56628418 97.57929993 C372.58346473 108.26433984 372.58431392 118.94932092 372.57907128 129.63437106 C372.57502783 138.31824863 372.5764752 147.00210882 372.58181953 155.68598557 C372.58256796 156.92248314 372.58331638 158.15898072 372.58408748 159.43294793 C372.58561897 161.94493848 372.58715731 164.45692902 372.58870245 166.96891956 C372.60203314 189.84386086 372.59771126 212.71877532 372.5864919 235.59371534 C372.57638572 256.46707897 372.58475435 277.34036218 372.60798645 298.2137146 C372.63406156 321.67924205 372.64685719 345.1447284 372.6397987 368.61027181 C372.63630419 381.03003841 372.63855419 393.44973895 372.65604973 405.86949539 C372.67075466 416.43918687 372.6714292 427.00876575 372.65397882 437.57845499 C372.64545343 442.97097651 372.64335708 448.36329673 372.65863037 453.75580788 C372.67244081 458.69290034 372.66776118 463.62961834 372.64839114 468.56668894 C372.64461972 470.3518371 372.64758588 472.13701499 372.65800279 473.92213674 C372.72520397 486.32063259 371.66524626 495.18098586 362.93440247 504.54476929 C355.1028231 512.0692279 347.37113417 512.56210409 337.0466156 512.52812195 C335.20366868 512.53386027 335.20366868 512.53386027 333.3234905 512.53971452 C329.92054363 512.54824143 326.51781309 512.54781329 323.11487246 512.54353392 C319.4419774 512.5410663 315.76910769 512.55008133 312.09622192 512.55757141 C304.90338412 512.57031956 297.71058365 512.57211195 290.51773645 512.56977115 C284.67078486 512.56798791 278.82384461 512.56973776 272.97689438 512.57399559 C272.14463337 512.57459078 271.31237236 512.57518597 270.45489132 512.57579919 C268.76412937 512.57701095 267.07336742 512.57822508 265.38260548 512.57944157 C249.52706817 512.59031762 233.67155213 512.58815435 217.81601362 512.58205672 C203.31412066 512.57688788 188.81229489 512.58814204 174.31041522 512.60715494 C159.41661684 512.62653184 144.52285024 512.63478958 129.62903917 512.63103169 C121.26862209 512.62911937 112.90826218 512.63161016 104.54785538 512.64574623 C97.43029268 512.65765913 90.31282236 512.65906598 83.19525839 512.64695606 C79.56488787 512.64106663 75.93468629 512.6399696 72.30432701 512.65195847 C68.36620731 512.66481237 64.42834368 512.65435421 60.49021912 512.64164734 C59.34643913 512.64902162 58.20265914 512.65639591 57.02421916 512.66399366 C46.45837325 512.59220988 40.10977008 509.99365855 32.34846497 502.68539429 C27.8951767 497.80648201 25.01253421 491.90674428 25.0211792 485.22416687 C25.0191172 483.99372147 25.0191172 483.99372147 25.01701355 482.73841858 C25.02060883 481.84218277 25.0242041 480.94594696 25.02790833 480.02255249 C25.0277623 479.07601807 25.02761627 478.12948364 25.02746582 477.15426636 C25.02816324 474.02138996 25.03594773 470.88857281 25.04377747 467.75570679 C25.04564225 465.58523084 25.04706587 463.41475447 25.04806519 461.24427795 C25.05188561 455.52814576 25.06171187 449.81203892 25.07276917 444.09591675 C25.08299347 438.26441796 25.087565 432.43291508 25.09260559 426.60140991 C25.10333454 415.1567373 25.1204053 403.71208353 25.14143372 392.26742554 C24.53496915 392.27111271 23.92850458 392.27479988 23.3036623 392.27859879 C8.49477319 392.36723127 -6.31409005 392.4332713 -21.12317944 392.47467422 C-28.28499105 392.49523253 -35.44662477 392.52322286 -42.60832214 392.56918335 C-48.85603649 392.60925894 -55.10362191 392.63490717 -61.35146123 392.64377952 C-64.65467869 392.64895961 -67.95744504 392.66314337 -71.2605648 392.69034576 C-74.9629644 392.71960898 -78.6646136 392.72337185 -82.36711121 392.7215271 C-83.44246124 392.7359082 -84.51781128 392.75028931 -85.62574768 392.7651062 C-99.21883096 392.69236783 -111.26139274 388.19249526 -121.33122253 379.01351929 C-132.07930641 367.83479432 -136.16279952 355.40875427 -136.14909363 340.22079468 C-136.15581085 339.1416832 -136.16252808 338.06257172 -136.16944885 336.95075989 C-136.18836928 333.40131972 -136.19234975 329.85206917 -136.19450378 326.30258179 C-136.20093467 323.82450789 -136.20766325 321.34643475 -136.2146759 318.86836243 C-136.22663293 313.68113443 -136.23035822 308.49397297 -136.22917175 303.30673218 C-136.22896839 296.67133539 -136.25629611 290.03636605 -136.29071617 283.40107059 C-136.31298694 278.28542635 -136.31700927 273.16988507 -136.3159523 268.05419731 C-136.31830699 265.60825563 -136.32712299 263.16231105 -136.34261703 260.71641731 C-136.36228438 257.29179272 -136.35643568 253.86809142 -136.34440613 250.44345093 C-136.36126465 248.93991562 -136.36126465 248.93991562 -136.37846375 247.40600586 C-136.29320352 237.81996222 -133.15167918 230.96145173 -126.65153503 223.99008179 C-120.87637402 218.44139768 -114.81245273 216.00561817 -106.85319519 216.04037476 C-105.69244476 216.04052582 -104.53169434 216.04067688 -103.33576965 216.04083252 C-102.09805817 216.05115509 -100.86034668 216.06147766 -99.58512878 216.07211304 C-97.6668074 216.07635788 -97.6668074 216.07635788 -95.70973206 216.08068848 C-92.32636529 216.08996534 -88.94327302 216.10790371 -85.5599823 216.13009644 C-82.10094054 216.15063513 -78.64187032 216.15970727 -75.18278503 216.16976929 C-68.40797014 216.19179354 -61.63328405 216.22524436 -54.85856628 216.26742554 C-54.86040987 215.41873555 -54.86225346 214.57004557 -54.86415291 213.6956377 C-54.90840594 193.0033333 -54.94145878 172.3110371 -54.96219063 151.61869526 C-54.97248399 141.6118582 -54.98650709 131.60505281 -55.00944519 121.59823608 C-55.02943862 112.87185032 -55.04229681 104.14548751 -55.04674327 95.41907948 C-55.0493406 90.8025692 -55.05540468 86.18612455 -55.0700264 81.56963539 C-55.08370456 77.21535488 -55.08776845 72.86116641 -55.08478165 68.50686646 C-55.08532727 66.9175027 -55.08924329 65.32813554 -55.09697723 63.73879051 C-55.1868448 44.30052435 -52.89410885 27.9281911 -39.05387878 13.36898804 C-27.73146705 2.61034784 -15.01783043 -0.03540358 0 0 Z " fill="#D1DBFC" transform="translate(137.8585662841797,-0.267425537109375)"/>
<path d="M0 0 C1.42054765 -0.00373909 2.84109325 -0.00834164 4.2616356 -0.01373065 C8.15621946 -0.02594432 12.05071732 -0.0257021 15.94531596 -0.02334189 C20.14929245 -0.02293331 24.35324152 -0.03397692 28.5572052 -0.04345703 C36.79065147 -0.06005951 45.0240691 -0.06556626 53.25753071 -0.06668179 C59.95205945 -0.0676327 66.64657875 -0.07174519 73.34110451 -0.07808304 C92.3304116 -0.09569411 111.3196961 -0.10492223 130.30901142 -0.10342209 C131.84411588 -0.10330222 131.84411588 -0.10330222 133.41023254 -0.10317993 C134.4348884 -0.10309817 135.45954426 -0.10301641 136.5152503 -0.10293217 C153.11601071 -0.10211951 169.71668033 -0.12125242 186.31741448 -0.14945666 C203.37184766 -0.17820255 220.42623658 -0.19199599 237.48069459 -0.19026911 C247.05184756 -0.18960576 256.62290537 -0.19507411 266.19403648 -0.21662521 C274.3442624 -0.23485953 282.49435003 -0.23916595 290.64458754 -0.22560637 C294.80004141 -0.2190878 298.95523018 -0.21891905 303.11065865 -0.23631287 C306.92118983 -0.2520984 310.73124692 -0.24912469 314.54176692 -0.2317446 C316.55964827 -0.22724757 318.57754465 -0.24228896 320.59536809 -0.25822389 C334.99811958 -0.14976118 347.26412947 4.52361346 357.82893372 14.39242554 C370.72024829 27.99105118 372.59511351 42.60579369 372.52911377 60.49951172 C372.53329104 62.34638014 372.53877071 64.193246 372.54543358 66.04010713 C372.55985473 71.09443377 372.55565391 76.14859689 372.54826677 81.20293236 C372.5435293 86.66173701 372.55604991 92.12050658 372.56628418 97.57929993 C372.58346473 108.26433984 372.58431392 118.94932092 372.57907128 129.63437106 C372.57502783 138.31824863 372.5764752 147.00210882 372.58181953 155.68598557 C372.58256796 156.92248314 372.58331638 158.15898072 372.58408748 159.43294793 C372.58561897 161.94493848 372.58715731 164.45692902 372.58870245 166.96891956 C372.60203314 189.84386086 372.59771126 212.71877532 372.5864919 235.59371534 C372.57638572 256.46707897 372.58475435 277.34036218 372.60798645 298.2137146 C372.63406156 321.67924205 372.64685719 345.1447284 372.6397987 368.61027181 C372.63630419 381.03003841 372.63855419 393.44973895 372.65604973 405.86949539 C372.67075466 416.43918687 372.6714292 427.00876575 372.65397882 437.57845499 C372.64545343 442.97097651 372.64335708 448.36329673 372.65863037 453.75580788 C372.67244081 458.69290034 372.66776118 463.62961834 372.64839114 468.56668894 C372.64461972 470.3518371 372.64758588 472.13701499 372.65800279 473.92213674 C372.72520397 486.32063259 371.66524626 495.18098586 362.93440247 504.54476929 C355.1028231 512.0692279 347.37113417 512.56210409 337.0466156 512.52812195 C335.20366868 512.53386027 335.20366868 512.53386027 333.3234905 512.53971452 C329.92054363 512.54824143 326.51781309 512.54781329 323.11487246 512.54353392 C319.4419774 512.5410663 315.76910769 512.55008133 312.09622192 512.55757141 C304.90338412 512.57031956 297.71058365 512.57211195 290.51773645 512.56977115 C284.67078486 512.56798791 278.82384461 512.56973776 272.97689438 512.57399559 C272.14463337 512.57459078 271.31237236 512.57518597 270.45489132 512.57579919 C268.76412937 512.57701095 267.07336742 512.57822508 265.38260548 512.57944157 C249.52706817 512.59031762 233.67155213 512.58815435 217.81601362 512.58205672 C203.31412066 512.57688788 188.81229489 512.58814204 174.31041522 512.60715494 C159.41661684 512.62653184 144.52285024 512.63478958 129.62903917 512.63103169 C121.26862209 512.62911937 112.90826218 512.63161016 104.54785538 512.64574623 C97.43029268 512.65765913 90.31282236 512.65906598 83.19525839 512.64695606 C79.56488787 512.64106663 75.93468629 512.6399696 72.30432701 512.65195847 C68.36620731 512.66481237 64.42834368 512.65435421 60.49021912 512.64164734 C59.34643913 512.64902162 58.20265914 512.65639591 57.02421916 512.66399366 C46.45837325 512.59220988 40.10977008 509.99365855 32.34846497 502.68539429 C27.8951767 497.80648201 25.01253421 491.90674428 25.0211792 485.22416687 C25.0191172 483.99372147 25.0191172 483.99372147 25.01701355 482.73841858 C25.02060883 481.84218277 25.0242041 480.94594696 25.02790833 480.02255249 C25.0277623 479.07601807 25.02761627 478.12948364 25.02746582 477.15426636 C25.02816324 474.02138996 25.03594773 470.88857281 25.04377747 467.75570679 C25.04564225 465.58523084 25.04706587 463.41475447 25.04806519 461.24427795 C25.05188561 455.52814576 25.06171187 449.81203892 25.07276917 444.09591675 C25.08299347 438.26441796 25.087565 432.43291508 25.09260559 426.60140991 C25.10333454 415.1567373 25.1204053 403.71208353 25.14143372 392.26742554 C24.53496915 392.27111271 23.92850458 392.27479988 23.3036623 392.27859879 C8.49477319 392.36723127 -6.31409005 392.4332713 -21.12317944 392.47467422 C-28.28499105 392.49523253 -35.44662477 392.52322286 -42.60832214 392.56918335 C-48.85603649 392.60925894 -55.10362191 392.63490717 -61.35146123 392.64377952 C-64.65467869 392.64895961 -67.95744504 392.66314337 -71.2605648 392.69034576 C-74.9629644 392.71960898 -78.6646136 392.72337185 -82.36711121 392.7215271 C-83.44246124 392.7359082 -84.51781128 392.75028931 -85.62574768 392.7651062 C-99.21883096 392.69236783 -111.26139274 388.19249526 -121.33122253 379.01351929 C-132.07930641 367.83479432 -136.16279952 355.40875427 -136.14909363 340.22079468 C-136.15581085 339.1416832 -136.16252808 338.06257172 -136.16944885 336.95075989 C-136.18836928 333.40131972 -136.19234975 329.85206917 -136.19450378 326.30258179 C-136.20093467 323.82450789 -136.20766325 321.34643475 -136.2146759 318.86836243 C-136.22663293 313.68113443 -136.23035822 308.49397297 -136.22917175 303.30673218 C-136.22896839 296.67133539 -136.25629611 290.03636605 -136.29071617 283.40107059 C-136.31298694 278.28542635 -136.31700927 273.16988507 -136.3159523 268.05419731 C-136.31830699 265.60825563 -136.32712299 263.16231105 -136.34261703 260.71641731 C-136.36228438 257.29179272 -136.35643568 253.86809142 -136.34440613 250.44345093 C-136.36126465 248.93991562 -136.36126465 248.93991562 -136.37846375 247.40600586 C-136.29320352 237.81996222 -133.15167918 230.96145173 -126.65153503 223.99008179 C-120.87637402 218.44139768 -114.81245273 216.00561817 -106.85319519 216.04037476 C-105.69244476 216.04052582 -104.53169434 216.04067688 -103.33576965 216.04083252 C-102.09805817 216.05115509 -100.86034668 216.06147766 -99.58512878 216.07211304 C-97.6668074 216.07635788 -97.6668074 216.07635788 -95.70973206 216.08068848 C-92.32636529 216.08996534 -88.94327302 216.10790371 -85.5599823 216.13009644 C-82.10094054 216.15063513 -78.64187032 216.15970727 -75.18278503 216.16976929 C-68.40797014 216.19179354 -61.63328405 216.22524436 -54.85856628 216.26742554 C-54.86040987 215.41873555 -54.86225346 214.57004557 -54.86415291 213.6956377 C-54.90840594 193.0033333 -54.94145878 172.3110371 -54.96219063 151.61869526 C-54.97248399 141.6118582 -54.98650709 131.60505281 -55.00944519 121.59823608 C-55.02943862 112.87185032 -55.04229681 104.14548751 -55.04674327 95.41907948 C-55.0493406 90.8025692 -55.05540468 86.18612455 -55.0700264 81.56963539 C-55.08370456 77.21535488 -55.08776845 72.86116641 -55.08478165 68.50686646 C-55.08532727 66.9175027 -55.08924329 65.32813554 -55.09697723 63.73879051 C-55.1868448 44.30052435 -52.89410885 27.9281911 -39.05387878 13.36898804 C-27.73146705 2.61034784 -15.01783043 -0.03540358 0 0 Z M35.14143372 20.26742554 C35.53975403 21.01765991 35.93807434 21.76789429 36.34846497 22.54086304 C36.87826965 23.56437866 37.40807434 24.58789429 37.95393372 25.64242554 C38.73703918 27.1390271 38.73703918 27.1390271 39.53596497 28.66586304 C44.23718684 39.21215638 44.56813055 48.84326165 44.51997375 60.21635437 C44.52326745 62.04458598 44.52788316 63.8728156 44.53370142 65.70104092 C44.54588577 70.70834664 44.53956012 75.71548254 44.53019643 80.72278798 C44.52338985 86.1290421 44.53393766 91.53526531 44.54248047 96.94151306 C44.55503719 106.30385453 44.55702336 115.66614982 44.55212402 125.0284977 C44.54531486 138.57026051 44.55783476 152.1119537 44.5756312 165.65370407 C44.6042695 187.63244476 44.62179161 209.61117794 44.63020325 231.5899353 C44.63071043 232.90482046 44.6312176 234.21970563 44.63174015 235.57443579 C44.63552053 245.57782832 44.63883527 255.58122097 44.64208496 265.58461368 C44.64534065 275.58866631 44.64880985 285.59271882 44.65266418 295.59677124 C44.6531668 296.91156903 44.65366942 298.22636683 44.65418726 299.58100698 C44.6629236 321.48439251 44.68334204 343.38775212 44.71214628 365.29112023 C44.72934647 378.80395571 44.73590207 392.31671798 44.72884023 405.82956298 C44.72466921 415.08042712 44.73098375 424.33124499 44.74563897 433.58209834 C44.75371705 438.92345351 44.75677417 444.26469405 44.74681664 449.60604858 C44.73778426 454.49172181 44.74239777 459.37718145 44.75803107 464.26283624 C44.7612317 466.03381073 44.75931326 467.80480309 44.75186568 469.57576481 C44.74248589 471.97651852 44.75142761 474.37652457 44.7650528 476.77724171 C44.75791856 477.47036885 44.75078432 478.16349599 44.74343389 478.87762699 C44.7931157 483.18564653 45.48951427 485.85841631 48.14143372 489.26742554 C51.1127485 492.10594761 53.11358153 492.64270547 57.17993069 492.64494896 C58.20196289 492.6527722 59.2239951 492.66059544 60.27699798 492.66865575 C61.39809292 492.66196359 62.51918786 492.65527142 63.67425537 492.64837646 C64.86654253 492.65305644 66.05882969 492.65773641 67.28724676 492.6625582 C70.59799585 492.67246618 73.90823564 492.66888382 77.21895397 492.65959954 C80.78890112 492.65282215 84.35880321 492.66328381 87.92874146 492.67153931 C94.92301308 492.68489328 101.91718823 492.6819914 108.91146367 492.67330138 C114.5954492 492.66653124 120.27940767 492.66560522 125.96339607 492.66887283 C126.77181598 492.66933253 127.58023589 492.66979223 128.41315337 492.67026586 C130.05536259 492.67122502 131.69757179 492.67219766 133.33978099 492.67318363 C148.74647632 492.68174254 164.15311814 492.67189584 179.55980469 492.65578254 C192.78259782 492.64238143 206.00531193 492.64470475 219.22810364 492.65853882 C234.57743222 492.67459017 249.92671387 492.68091585 265.27604967 492.67170203 C266.91258497 492.67074637 268.54912028 492.66980325 270.18565559 492.66887283 C271.39351062 492.66817859 271.39351062 492.66817859 272.62576677 492.66747033 C278.3031343 492.66487891 283.98047208 492.66925475 289.65783501 492.67631149 C296.5764475 492.68472187 303.49495787 492.68245624 310.41355865 492.66646926 C313.94430263 492.65857987 317.47487629 492.65550616 321.00561905 492.66541672 C324.83105202 492.6759921 328.65620552 492.66337241 332.48162842 492.64837646 C333.60049263 492.65506863 334.71935685 492.6617608 335.87212604 492.66865575 C336.896766 492.66083251 337.92140595 492.65300927 338.9770956 492.64494896 C340.3015353 492.64421837 340.3015353 492.64421837 341.65273136 492.64347303 C345.83157538 492.01204203 348.30055682 490.31211847 350.93016392 487.04513377 C352.43935399 483.58422877 352.55803634 480.53103734 352.52175045 476.82409382 C352.52874033 475.70813986 352.52874033 475.70813986 352.53587142 474.56964138 C352.54785281 472.06868467 352.53841402 469.56826808 352.52911377 467.06730652 C352.53328534 465.25932744 352.53876188 463.45135097 352.54543358 461.64337939 C352.55993064 456.66863944 352.55563014 451.69406456 352.54826677 446.71931541 C352.54354779 441.3565011 352.55603382 435.99372316 352.56628418 430.63092041 C352.58350378 420.12118771 352.58430547 409.61151472 352.57907128 399.10177157 C352.57503343 390.55934939 352.57646855 382.01694488 352.58181953 373.47452354 C352.58256796 372.25970464 352.58331638 371.04488573 352.58408748 369.79325413 C352.58561893 367.32547611 352.58715728 364.85769809 352.58870245 362.38992008 C352.60243947 339.23213609 352.59698185 316.07438586 352.58551724 292.91660263 C352.57558843 271.72960208 352.58851733 250.54268891 352.61245143 229.35570184 C352.6368348 207.6072675 352.64645187 185.85887387 352.6397987 164.11042613 C352.63630417 151.8978949 352.63855375 139.68543084 352.65604973 127.47290993 C352.67076236 117.07401271 352.67141962 106.67522993 352.65397882 96.27633498 C352.64545787 90.97081658 352.64334601 85.6655027 352.65863037 80.35999489 C352.67245512 75.50094327 352.66774259 70.64227181 352.64839114 65.78324231 C352.64462397 64.02750652 352.64757372 62.27174045 352.65800279 60.5160316 C352.72850847 47.73540877 351.53394016 37.89374569 342.43440247 28.24789429 C336.75840701 23.34545869 329.72742263 20.14115636 322.21201801 20.14437771 C321.18889336 20.14238666 320.16576871 20.14039561 319.11164027 20.13834423 C317.42051271 20.14271349 317.42051271 20.14271349 315.69522095 20.14717102 C314.50026038 20.1463166 313.30529982 20.14546217 312.07412833 20.14458185 C308.75162497 20.14321664 305.42918015 20.14635292 302.10668385 20.15135992 C298.52592603 20.15566974 294.94517009 20.15421761 291.3644104 20.15345764 C285.15861391 20.15293275 278.95282792 20.15607597 272.74703407 20.16169548 C263.77444722 20.16981511 254.80186546 20.17242618 245.82927533 20.17368347 C231.27259934 20.17587326 216.71592894 20.18253137 202.15925598 20.19198608 C188.01700366 20.20116209 173.87475286 20.208242 159.73249817 20.2124939 C158.86108363 20.21275662 157.98966909 20.21301934 157.09184805 20.21329003 C152.72031116 20.21459505 148.34877426 20.21585876 143.97723734 20.21710193 C107.69863218 20.22747227 71.42003338 20.2450886 35.14143372 20.26742554 Z " fill="#052A75" transform="translate(137.8585662841797,-0.267425537109375)"/>
<path d="M0 0 C2.71054653 0.05970833 5.42013291 0.06722631 8.13125038 0.07315254 C11.40378046 0.08421917 14.67562601 0.13097636 17.94781494 0.1776123 C19.74975815 0.19370041 19.74975815 0.19370041 21.58810425 0.21011353 C32.5683157 0.51761872 40.50073072 3.23485941 48.49859619 10.83776855 C54.46500294 17.3410299 56.71822042 24.77561148 56.66602135 33.4973526 C56.66952742 34.24367413 56.6730335 34.98999567 56.67664582 35.75893301 C56.68595556 38.26172637 56.68103764 40.76428683 56.67617798 43.26708984 C56.67991443 45.07878131 56.68451593 46.89047116 56.68990862 48.70215845 C56.70215423 53.68232804 56.70187633 58.66243053 56.69951987 63.64261174 C56.69911211 69.01282492 56.71014683 74.38301647 56.71963501 79.7532196 C56.73625356 90.27416015 56.74174491 100.79507829 56.74285977 111.31603086 C56.74380965 119.86513487 56.74791695 128.41423147 56.75426102 136.96333313 C56.77187424 161.19066898 56.78109953 185.41798711 56.77960007 209.64532942 C56.77952016 210.95165171 56.77944024 212.25797401 56.77935791 213.60388184 C56.77927615 214.91179485 56.77919439 216.21970786 56.77911015 217.5672546 C56.77829679 238.77629029 56.79744683 259.98525503 56.82563464 281.19427019 C56.85433572 302.96079305 56.86817653 324.72728126 56.86644709 346.49382353 C56.86578232 358.71851313 56.87131282 370.94312832 56.89280319 383.1678009 C56.91097827 393.57337002 56.91539246 403.97883099 56.90178435 414.38440907 C56.89523667 419.69551866 56.89520236 425.00642054 56.91249084 430.3175106 C56.92814677 435.17692345 56.92543488 440.03596258 56.90792258 444.89536589 C56.90483617 446.65571398 56.90854637 448.41608944 56.91964273 450.17640525 C56.93370826 452.56547471 56.92322256 454.95322318 56.90653038 457.34224701 C56.91646674 458.02907749 56.9264031 458.71590797 56.93664056 459.4235515 C56.86383736 464.33667176 55.44257271 467.11458765 52.40875244 470.9197998 C48.99439644 473.47595867 45.3797034 473.24144836 41.21612549 473.35314941 C40.49836441 473.37432327 39.78060333 473.39549713 39.04109192 473.41731262 C31.5160985 473.62295302 23.98750028 473.70818438 16.46026611 473.78479004 C12.90221959 473.82470078 9.34789659 473.90097444 5.7913208 474.01037598 C-26.93190724 474.99371151 -26.93190724 474.99371151 -35.2374115 468.52565002 C-37.46319657 466.37884062 -39.38884512 464.15039212 -41.21736145 461.65875244 C-43.72822955 458.48070102 -46.85843704 455.94550289 -49.90374756 453.2947998 C-52.81176189 450.66052017 -55.39727253 448.21076235 -57.59124756 444.9197998 C-56.4991674 444.91100044 -56.4991674 444.91100044 -55.38502502 444.90202332 C-48.51394198 444.84404896 -41.64313576 444.77194504 -34.77237415 444.68408489 C-31.2402609 444.63941316 -27.70826212 444.60015042 -24.17596436 444.57336426 C-20.11227434 444.542309 -16.04920214 444.48752146 -11.98577881 444.43151855 C-10.08865898 444.42193367 -10.08865898 444.42193367 -8.1532135 444.41215515 C-6.38194344 444.38246391 -6.38194344 444.38246391 -4.57489014 444.35217285 C-3.53786453 444.34106979 -2.50083893 444.32996674 -1.43238831 444.31852722 C1.89623084 443.85138679 3.74645398 442.95757531 6.40875244 440.9197998 C8.74151884 437.67345074 8.67735411 434.63908267 8.71514893 430.71765137 C8.73113632 429.4624469 8.74712372 428.20724243 8.76359558 426.91400146 C8.76997393 425.54614672 8.77536615 424.17828708 8.77984619 422.8104248 C8.78881948 421.40041003 8.79794145 419.9903962 8.8072052 418.5803833 C8.8236829 415.62481376 8.83139265 412.6693573 8.83428955 409.71374512 C8.83966224 405.94313449 8.87729912 402.17360088 8.92303371 398.40329361 C8.95291723 395.48972794 8.96001558 392.57641763 8.9610157 389.6627121 C8.96519826 388.27373082 8.97755318 386.88474739 8.99853325 385.49591827 C9.11111524 377.39642563 8.98147331 371.15420519 3.40875244 364.9197998 C-3.57043264 358.12427748 -10.70354136 357.46539832 -19.99359131 357.40808105 C-21.07129288 357.39012985 -22.14899445 357.37217865 -23.25935364 357.35368347 C-26.68244582 357.29974534 -30.10539986 357.26573704 -33.52874756 357.2322998 C-35.85754275 357.19911225 -38.18631976 357.16462126 -40.51507568 357.12878418 C-46.20700906 357.04402837 -51.89896069 356.97560889 -57.59124756 356.9197998 C-57.596716 355.68737549 -57.596716 355.68737549 -57.60229492 354.43005371 C-57.64026497 346.66215924 -57.69721903 338.89473961 -57.7751503 331.12715149 C-57.81454932 327.13435292 -57.84677457 323.14177238 -57.86224365 319.14880371 C-57.87746069 315.29058398 -57.91199411 311.43296396 -57.95955658 307.57501221 C-57.97431872 306.10798373 -57.98228559 304.6408696 -57.98313141 303.17376709 C-57.99429086 293.51735161 -58.57268592 286.80723963 -64.90374756 279.1072998 C-71.82995196 273.46969157 -78.32300636 273.45258079 -86.95452881 273.4510498 C-88.73527046 273.43962952 -88.73527046 273.43962952 -90.55198669 273.42797852 C-93.05748396 273.4171994 -95.56302608 273.41431547 -98.06854248 273.41882324 C-101.88091892 273.41979399 -105.69127147 273.37817457 -109.50335693 273.3338623 C-111.94541006 273.32865355 -114.38747013 273.32596714 -116.82952881 273.3260498 C-117.95901443 273.30965454 -119.08850006 273.29325928 -120.25221252 273.27636719 C-127.83801817 273.34186136 -133.13022846 274.93332092 -139.59124756 278.9197998 C-141.63208243 269.12379241 -142.74274585 259.92541303 -142.65374756 249.9197998 C-142.64224388 248.13594789 -142.63111952 246.3520935 -142.62030029 244.5682373 C-142.61061605 243.01875814 -142.6009318 241.46927897 -142.59124756 239.9197998 C-140.7675061 239.89792603 -140.7675061 239.89792603 -138.90692139 239.87561035 C-134.38725678 239.81754882 -129.86808629 239.74031621 -125.34881592 239.65734863 C-123.39447054 239.62413626 -121.44003009 239.59609285 -119.48553467 239.57336426 C-116.67270474 239.53975048 -113.86074309 239.48743127 -111.04827881 239.43151855 C-110.17726028 239.42512863 -109.30624176 239.41873871 -108.40882874 239.41215515 C-103.6779044 239.2980202 -100.40594572 239.02476538 -96.59124756 235.9197998 C-94.24955992 232.40726835 -94.09501079 231.05510625 -94.59124756 226.9197998 C-96.74215207 223.58218935 -97.79537555 222.18509047 -101.59124756 220.9197998 C-102.9564007 220.80714433 -104.32601967 220.74397394 -105.69549561 220.71447754 C-106.51611984 220.69453232 -107.33674408 220.6745871 -108.18223572 220.65403748 C-109.06357681 220.63732498 -109.94491791 220.62061249 -110.85296631 220.60339355 C-112.21165581 220.57222191 -112.21165581 220.57222191 -113.59779358 220.54042053 C-116.49136772 220.47503422 -119.38503262 220.41609076 -122.27874756 220.3572998 C-124.24034549 220.3141042 -126.20193424 220.27048958 -128.16351318 220.22644043 C-132.97266495 220.11936398 -137.78190802 220.01806566 -142.59124756 219.9197998 C-142.47499786 217.4816153 -142.34835264 215.04463859 -142.21624756 212.6072998 C-142.18531006 211.93634277 -142.15437256 211.26538574 -142.12249756 210.57409668 C-141.78527281 204.58835739 -140.75353273 198.79610057 -139.59124756 192.9197998 C-138.85066605 192.91393356 -138.11008453 192.90806732 -137.34706116 192.90202332 C-130.35825222 192.84405255 -123.36971554 192.77195066 -116.38122272 192.68408489 C-112.78857491 192.63941035 -109.19603972 192.60014819 -105.60321045 192.57336426 C-102.13409059 192.54730158 -98.66540481 192.50687925 -95.19655418 192.45661354 C-93.23302911 192.43187759 -91.26933598 192.42190753 -89.30567932 192.41215515 C-88.10481186 192.39236099 -86.9039444 192.37256683 -85.66668701 192.35217285 C-84.61189651 192.34106979 -83.55710602 192.32996674 -82.47035217 192.31852722 C-79.17052147 191.86153342 -77.26510365 190.87728055 -74.59124756 188.9197998 C-73.42781529 186.59293527 -73.39228767 185.07258567 -73.34124756 182.4822998 C-73.31546631 181.69983887 -73.28968506 180.91737793 -73.26312256 180.11120605 C-73.67162028 177.38302483 -74.42397217 176.57563871 -76.59124756 174.9197998 C-79.66343092 173.89573869 -81.85136931 173.7651462 -85.07244873 173.71447754 C-86.19338425 173.69453232 -87.31431976 173.6745871 -88.46922302 173.65403748 C-89.67867081 173.63732498 -90.88811859 173.62061249 -92.13421631 173.60339355 C-93.37294998 173.58261246 -94.61168365 173.56183136 -95.88795471 173.54042053 C-99.17750012 173.48608183 -102.46707482 173.4358403 -105.75671387 173.38757324 C-109.1150257 173.33729335 -112.47324802 173.28164119 -115.83148193 173.22644043 C-122.41799914 173.11926933 -129.0045834 173.01749845 -135.59124756 172.9197998 C-135.0564419 168.91913605 -134.461038 165.01958053 -133.43499756 161.1151123 C-133.217146 160.28495605 -132.99929443 159.4547998 -132.77484131 158.5994873 C-132.4364624 157.33491699 -132.4364624 157.33491699 -132.09124756 156.0447998 C-131.86566162 155.1785498 -131.64007568 154.3122998 -131.40765381 153.4197998 C-129.71996224 147.04851449 -129.71996224 147.04851449 -128.59124756 145.9197998 C-126.89446887 145.81576978 -125.19335942 145.78182351 -123.4934082 145.77503967 C-122.388591 145.76814117 -121.2837738 145.76124268 -120.14547729 145.75413513 C-118.92263031 145.75152176 -117.69978333 145.74890839 -116.43988037 145.74621582 C-114.47565302 145.73595093 -112.51142569 145.7256839 -110.54719877 145.71533668 C-108.42896314 145.70508712 -106.31072994 145.69724513 -104.19248199 145.69000435 C-99.78034 145.67458136 -95.36827038 145.65063114 -90.95617676 145.62510681 C-78.40749687 145.55382987 -65.85877496 145.49416158 -53.30999756 145.44299316 C-46.38440616 145.41467797 -39.45888623 145.37928729 -32.53336978 145.33633941 C-28.14841905 145.30957565 -23.76354921 145.29166477 -19.37853289 145.28030217 C-16.00569711 145.26902174 -12.63297451 145.24490185 -9.26019287 145.22277832 C-7.43806778 145.22189461 -7.43806778 145.22189461 -5.57913208 145.22099304 C-4.46303558 145.21127472 -3.34693909 145.2015564 -2.19702148 145.19154358 C-0.74576307 145.18519567 -0.74576307 145.18519567 0.73481369 145.17871952 C3.67370905 144.89414384 5.7852815 144.26982263 8.40875244 142.9197998 C10.85396359 139.25198309 11.13113003 136.18526748 10.40875244 131.9197998 C8.5386015 129.48860358 7.12736899 128.27910808 4.40875244 126.9197998 C2.74921676 126.81511741 1.08555315 126.7732443 -0.57723999 126.76158142 C-1.63175858 126.7517926 -2.68627716 126.74200378 -3.77275085 126.73191833 C-4.93440262 126.72616287 -6.09605438 126.72040741 -7.29290771 126.71447754 C-8.51239609 126.70457794 -9.73188446 126.69467834 -10.98832703 126.68447876 C-14.33727017 126.6582563 -17.68618902 126.63640862 -21.03517199 126.61647677 C-24.53325009 126.59463281 -28.03128451 126.56723636 -31.52932739 126.54042053 C-38.15556439 126.49047211 -44.7818256 126.44554127 -51.40811002 126.40239817 C-58.95096791 126.35304414 -66.49378197 126.29811922 -74.03659749 126.24271858 C-89.5547737 126.12886554 -105.07299019 126.02203375 -120.59124756 125.9197998 C-120.03214222 121.60829098 -118.9936923 118.2029626 -117.08734131 114.3026123 C-116.5942749 113.28425293 -116.1012085 112.26589355 -115.59320068 111.2166748 C-114.81879639 109.64659668 -114.81879639 109.64659668 -114.02874756 108.0447998 C-113.50861084 106.97487793 -112.98847412 105.90495605 -112.45257568 104.8026123 C-111.17229575 102.17157832 -109.88502337 99.54421658 -108.59124756 96.9197998 C-107.76463906 96.91759996 -107.76463906 96.91759996 -106.92133141 96.91535568 C-93.49999019 96.87827137 -80.07890432 96.81898347 -66.65776634 96.73589706 C-60.1673214 96.69638599 -53.67701287 96.66421512 -47.1864624 96.64880371 C-40.92285027 96.63366136 -34.65961309 96.59925805 -28.39616776 96.55149078 C-26.00640751 96.53665214 -23.61659374 96.52875737 -21.22678757 96.52791595 C-17.87960572 96.52555213 -14.53346497 96.49851763 -11.1864624 96.46569824 C-10.1981543 96.47072861 -9.20984619 96.47575897 -8.19158936 96.48094177 C-2.34239814 96.39219502 0.92119872 95.75503596 5.40875244 91.9197998 C9.48249619 87.28416037 9.58872031 82.90822898 9.64703369 76.96276855 C9.65914131 75.79189445 9.65914131 75.79189445 9.67149353 74.59736633 C9.68531564 72.94567066 9.69604617 71.29394666 9.70391846 69.64221191 C9.72111935 67.12676345 9.76501851 64.61263404 9.80914307 62.09753418 C9.81927186 60.49012194 9.82778738 58.88269855 9.83453369 57.27526855 C9.86079582 56.15465279 9.86079582 56.15465279 9.8875885 55.01139832 C9.86610095 49.79214365 8.86283466 46.82789708 5.40875244 42.9197998 C-1.03384643 37.6040032 -8.25352867 38.31525402 -16.27484131 38.3104248 C-17.69975143 38.29542701 -19.12464428 38.27869651 -20.54951477 38.26031494 C-24.27964114 38.21680776 -28.00953308 38.19667973 -31.73986816 38.18157959 C-35.5544003 38.16194799 -39.36868147 38.11998505 -43.18304443 38.07995605 C-50.65237773 38.00483455 -58.12160509 37.95443441 -65.59124756 37.9197998 C-64.11324106 34.82798825 -62.61681383 32.69843516 -60.17718506 30.27526855 C-59.49784912 29.59786621 -58.81851318 28.92046387 -58.11859131 28.22253418 C-57.40831787 27.52450684 -56.69804443 26.82647949 -55.96624756 26.1072998 C-55.27917725 25.42087402 -54.59210693 24.73444824 -53.88421631 24.02722168 C-49.97302135 20.14904807 -46.02687805 16.33790427 -41.75921631 12.85119629 C-39.47485906 10.92084138 -39.47485906 10.92084138 -37.46234131 8.2911377 C-27.53618074 -2.55934848 -13.67026727 -0.36620829 0 0 Z " fill="#FEFEFE" transform="translate(433.59124755859375,19.0802001953125)"/>
<path d="M0 0 C1.06871338 -0.01606293 2.13742676 -0.03212585 3.23852539 -0.04867554 C8.15331404 -0.09321208 13.0679665 -0.1342334 17.98291016 -0.15722656 C20.568614 -0.17373725 23.15427314 -0.20096178 25.73974609 -0.23925781 C29.47517497 -0.29429616 33.20953154 -0.31594808 36.9453125 -0.33056641 C38.0904834 -0.35323578 39.2356543 -0.37590515 40.41552734 -0.39926147 C47.96578316 -0.37959066 53.55467868 0.96392904 59.8828125 5.19287109 C62.13671875 7.54443359 62.13671875 7.54443359 63.4453125 9.81787109 C63.90035156 10.57326172 64.35539063 11.32865234 64.82421875 12.10693359 C66.85553355 16.10959819 67.00466039 19.24794314 66.99633789 23.68383789 C66.99648392 24.3377652 66.99662994 24.9916925 66.9967804 25.66543579 C66.99608438 27.82435436 66.98830658 29.98318637 66.98046875 32.14208984 C66.97860346 33.63995822 66.97718008 35.13782721 66.97618103 36.63569641 C66.97236457 40.57632128 66.9625417 44.51690924 66.95147705 48.45751953 C66.94124422 52.47932435 66.9366794 56.50113513 66.93164062 60.52294922 C66.92091866 68.41294011 66.90385267 76.30290101 66.8828125 84.19287109 C67.47448212 84.18176804 68.06615173 84.17066498 68.67575073 84.15922546 C74.87319738 84.04800105 81.07035731 83.97294408 87.26855469 83.91821289 C89.57694021 83.89317792 91.88524733 83.85913955 94.19335938 83.81567383 C97.52493715 83.75453736 100.85546063 83.72655002 104.1875 83.70458984 C105.20770233 83.67878342 106.22790466 83.65297699 107.27902222 83.62638855 C115.19712156 83.62333803 121.95695476 85.47416062 127.82931519 91.03666687 C132.263449 95.94234932 134.12971849 99.73863299 134.1574707 106.44262695 C134.16700272 107.7075145 134.17653473 108.97240204 134.18635559 110.27561951 C134.18609415 111.6529849 134.18515705 113.03035031 134.18359375 114.40771484 C134.18748255 115.82491684 134.19181761 117.24211768 134.19657898 118.65931702 C134.20403391 121.62749004 134.20375524 124.5955441 134.19848633 127.5637207 C134.19269259 131.36126046 134.20962336 135.15831234 134.232831 138.95577145 C134.24758623 141.88207328 134.24843764 144.80825809 134.24532127 147.73459053 C134.24583359 149.13438445 134.25105453 150.53418507 134.26113319 151.93394279 C134.2735135 153.89383068 134.26475428 155.85381736 134.25512695 157.8137207 C134.25575638 158.92750595 134.2563858 160.0412912 134.2570343 161.18882751 C133.82424411 164.66302537 133.03411681 166.44089901 130.8828125 169.19287109 C126.60965271 172.5087688 122.67513385 172.62257367 117.46339417 172.58728027 C116.6180601 172.59337138 115.77272603 172.59946248 114.90177578 172.60573816 C112.07052953 172.62238099 109.23973239 172.61759053 106.40844727 172.61279297 C104.37805717 172.62013251 102.34767126 172.62871841 100.31729126 172.63845825 C94.80286065 172.66069405 89.28857937 172.66360392 83.77411008 172.66171074 C79.1715833 172.66159114 74.56908828 172.67015078 69.96657032 172.67848825 C59.1094466 172.69772947 48.25239977 172.70060338 37.39526367 172.69384766 C26.19174847 172.68720476 14.98856233 172.71007975 3.78511387 172.74716139 C-5.83200558 172.7778385 -15.44901907 172.78922061 -25.06618649 172.78532457 C-30.81091759 172.78325517 -36.55539262 172.78876615 -42.30007744 172.81321716 C-47.70186599 172.83544895 -53.1031187 172.83363594 -58.50490952 172.81328964 C-60.48745577 172.80987339 -62.47003785 172.81499507 -64.45253563 172.82927322 C-67.15924623 172.84742227 -69.86413056 172.83474959 -72.57078552 172.81433105 C-73.35532417 172.8268489 -74.13986282 172.83936675 -74.94817537 172.85226393 C-78.93551873 172.78777525 -81.4137137 172.35273008 -84.58883762 169.84152985 C-87.76841331 166.51065739 -88.23898868 164.2888191 -88.27108765 159.86177063 C-88.27968811 158.97730759 -88.28828857 158.09284454 -88.29714966 157.18157959 C-88.30140961 156.21375549 -88.30566956 155.2459314 -88.31005859 154.2487793 C-88.32232483 152.71657997 -88.32232483 152.71657997 -88.33483887 151.15342712 C-88.35968773 147.76684149 -88.37620845 144.3802978 -88.390625 140.99365234 C-88.39594868 139.83693716 -88.40127235 138.68022198 -88.40675735 137.48845482 C-88.43348784 131.36494993 -88.45286235 125.24146541 -88.46728516 119.11791992 C-88.48392472 112.79721912 -88.52869775 106.47704055 -88.5796566 100.15653706 C-88.61333606 95.29314077 -88.62486346 90.42986829 -88.63051224 85.5663662 C-88.63722361 83.2367981 -88.65244258 80.90723812 -88.67640305 78.57778358 C-88.70806835 75.31273664 -88.70808856 72.04909613 -88.70068359 68.78393555 C-88.71708893 67.8262326 -88.73349426 66.86852966 -88.75039673 65.88180542 C-88.68385923 58.69442599 -86.69594603 53.79753599 -81.60359764 48.66832447 C-77.15107895 44.78629236 -73.78681804 42.93719328 -67.88964844 42.96582031 C-66.84887146 42.96597137 -65.80809448 42.96612244 -64.73577881 42.96627808 C-63.06059174 42.98176193 -63.06059174 42.98176193 -61.3515625 42.99755859 C-60.20302795 43.00038849 -59.05449341 43.00321838 -57.87115479 43.00613403 C-54.20305969 43.01732847 -50.5352088 43.04243206 -46.8671875 43.06787109 C-44.38021186 43.07790183 -41.89323239 43.08702752 -39.40625 43.09521484 C-33.30981252 43.11726541 -27.21351746 43.15073585 -21.1171875 43.19287109 C-21.14337158 42.45762207 -21.16955566 41.72237305 -21.1965332 40.96484375 C-21.30147662 37.58274331 -21.3658207 34.20098675 -21.4296875 30.81787109 C-21.47158203 29.66158203 -21.51347656 28.50529297 -21.55664062 27.31396484 C-21.66722935 19.48428303 -20.5774916 13.73025402 -16.1171875 7.19287109 C-13.73046875 4.93896484 -13.73046875 4.93896484 -11.4296875 3.63037109 C-10.66269531 3.17533203 -9.89570313 2.72029297 -9.10546875 2.25146484 C-5.76432671 0.47258568 -3.81207929 0.05201771 0 0 Z " fill="#072B76" transform="translate(309.1171875,291.80712890625)"/>
<path d="M0 0 C8.29067661 4.74745448 12.85820322 11.62211173 15.796875 20.6015625 C16.45694632 25.20760009 16.45254458 29.72948897 16.39814758 34.37651062 C16.40033236 35.73894383 16.40471834 37.10137496 16.41109341 38.46379501 C16.422197 42.1789326 16.40238131 45.89334026 16.37720311 49.60838497 C16.35550516 53.62526919 16.36292509 57.64211598 16.36671448 61.65904236 C16.3693296 68.60907848 16.3537119 75.55887896 16.32552528 82.50885582 C16.28479954 92.55717458 16.2718588 102.60537999 16.26558533 112.65377233 C16.25465635 128.9586178 16.22142013 145.26333783 16.17407227 161.56811523 C16.12814047 177.40176773 16.09276629 193.23538608 16.0715332 209.0690918 C16.07021959 210.04593639 16.06890597 211.02278098 16.06755254 212.02922692 C16.06102711 216.9300251 16.05470863 221.83082352 16.04849303 226.7316221 C15.99670351 267.355047 15.90455184 307.97823975 15.796875 348.6015625 C-6.973125 348.6015625 -29.743125 348.6015625 -53.203125 348.6015625 C-51.94374757 345.45311893 -50.75449273 342.62741726 -49.203125 339.6640625 C-44.32988549 329.99004801 -44.05650292 320.96680347 -44.08528137 310.33747864 C-44.08457679 309.10264809 -44.08387221 307.86781754 -44.08314627 306.59556788 C-44.08229125 303.89164242 -44.08325002 301.1877891 -44.08729362 298.48387337 C-44.09384061 294.0834527 -44.09348229 289.68304772 -44.09222412 285.28262329 C-44.09110516 279.72051627 -44.09174392 274.15841422 -44.09442493 268.59630772 C-44.09955907 257.66246888 -44.09118416 246.728676 -44.07780457 235.79484558 C-44.07575794 234.07177554 -44.07371561 232.3487055 -44.07167751 230.62563545 C-44.06752165 227.13746701 -44.06330655 223.64929865 -44.05906999 220.16113031 C-44.04827347 211.19978782 -44.03846473 202.23844464 -44.0300293 193.27709961 C-44.02875242 191.92852455 -44.02875242 191.92852455 -44.02744975 190.55270555 C-44.01423399 175.98892153 -44.01924593 161.42519229 -44.03010086 146.86140887 C-44.04074171 131.89518927 -44.02851793 116.92910585 -43.99601859 101.96291751 C-43.97677227 92.73954401 -43.97569364 83.51653487 -43.99817487 74.29316708 C-44.01195125 67.96785751 -44.00373084 61.64281295 -43.97845028 55.31753991 C-43.9645463 51.67231827 -43.96020116 48.02776659 -43.98227501 44.38257027 C-44.00601703 40.42155973 -43.98299587 36.46156973 -43.95588684 32.50056458 C-43.97015506 31.36133618 -43.98442328 30.22210778 -43.99912387 29.04835731 C-43.87464354 20.01426478 -41.28367639 12.2262207 -35.22632915 5.36117774 C-24.85697552 -4.578372 -12.89162287 -5.97823962 0 0 Z " fill="#92B1F3" transform="translate(147.203125,23.3984375)"/>
<path d="M0 0 C1.04183441 -0.00281982 2.08366882 -0.00563965 3.15707397 -0.00854492 C4.30697311 -0.00652069 5.45687225 -0.00449646 6.64161682 -0.00241089 C7.85101929 -0.00416321 9.06042175 -0.00591553 10.30647278 -0.00772095 C13.65167699 -0.01138797 16.99681987 -0.01049204 20.34202075 -0.00734186 C23.91015368 -0.00478848 27.47828419 -0.00716737 31.04641724 -0.00872803 C37.10891679 -0.01055637 43.17140426 -0.00814198 49.23390198 -0.00338745 C55.31008213 0.00132569 61.38623762 0.00154388 67.4624176 -0.00338745 C87.56354695 -0.01904298 107.66391536 0.0178542 127.76481915 0.1160717 C130.12669513 0.12717868 132.48857366 0.13705715 134.85045624 0.14665222 C143.5464534 0.18294076 152.24204363 0.23420889 160.93769437 0.32134211 C164.65661639 0.35857383 168.37531949 0.38991256 172.09440422 0.40481186 C176.18299353 0.42172764 180.27060502 0.4702424 184.35890198 0.52200317 C186.1697248 0.52325888 186.1697248 0.52325888 188.0171299 0.52453995 C194.31914225 0.63392009 198.33454747 0.81683994 203.08522034 5.12698364 C207.01033525 9.70580741 207.67049777 13.52084134 207.58131409 19.37698364 C207.58276932 20.15332153 207.58422455 20.92965942 207.58572388 21.72952271 C207.58407124 23.36335013 207.5725814 24.99719415 207.55177307 26.63088989 C207.52280337 29.11984956 207.53117944 31.60667749 207.54420471 34.09573364 C207.53796657 35.68949391 207.52957503 37.2832475 207.51881409 38.87698364 C207.52174973 39.61464966 207.52468536 40.35231567 207.52770996 41.11233521 C207.42955357 46.53645943 206.30415546 50.74995645 202.55006409 54.77151489 C197.42236996 58.69269275 194.59579251 59.27566849 188.26107788 59.27415466 C187.44351397 59.27783135 186.62595005 59.28150804 185.78361148 59.28529614 C183.02842862 59.29635936 180.27328344 59.30018129 177.51808167 59.3039856 C175.54887267 59.3102483 173.57966487 59.31689493 171.61045837 59.32389832 C166.24871166 59.34132707 160.88697388 59.35186539 155.52520585 59.36010385 C152.17661969 59.36525049 148.82803632 59.37132641 145.47945213 59.37761497 C135.00629269 59.39667309 124.53314032 59.41090238 114.05996686 59.41922694 C101.96371586 59.42899977 89.86764783 59.45531798 77.77146131 59.49572784 C68.42701365 59.52587527 59.08261847 59.54069456 49.73812312 59.54400796 C44.15485984 59.54636019 38.57179189 59.55534317 32.9885807 59.58046913 C27.73465094 59.60373044 22.48104537 59.6079908 17.22707748 59.59770775 C15.29977402 59.59721179 13.3724547 59.60354982 11.44519997 59.61726379 C8.81117171 59.63495656 6.17831017 59.62788964 3.54428101 59.61473083 C2.78395453 59.62570008 2.02362805 59.63666933 1.24026138 59.64797097 C-4.2209515 59.58223344 -7.415583 58.25526875 -11.91477966 55.12698364 C-15.90640444 50.27719873 -16.51186773 45.69461377 -16.44602966 39.56057739 C-16.44985657 38.7634584 -16.45368347 37.96633942 -16.45762634 37.14506531 C-16.46033308 35.4701612 -16.45305909 33.79521393 -16.43626404 32.12039185 C-16.41480577 29.56758926 -16.43612013 27.01759123 -16.46165466 24.46487427 C-16.45901172 22.83010248 -16.45388742 21.19533243 -16.44602966 19.56057739 C-16.45817505 18.42597328 -16.45817505 18.42597328 -16.4705658 17.26844788 C-16.38018678 12.12380999 -15.25721203 9.23264559 -11.91477966 5.12698364 C-7.76823197 1.47407258 -5.4833028 0.00228015 0 0 Z " fill="#91B706" transform="translate(236.91477966308594,56.873016357421875)"/>
<path d="M0 0 C1.65148544 0.0001133 1.65148544 0.0001133 3.33633423 0.00022888 C4.52906952 0.00539017 5.72180481 0.01055145 6.95068359 0.01586914 C8.16863617 0.01728409 9.38658875 0.01869904 10.64144897 0.02015686 C14.54403099 0.025769 18.44655632 0.0383236 22.34912109 0.05102539 C24.98974527 0.05603882 27.63037034 0.060602 30.27099609 0.06469727 C36.75539054 0.07574238 43.23975177 0.09249237 49.72412109 0.11352539 C49.81775819 14.43062637 49.88792851 28.74767954 49.93136978 43.06502438 C49.9522221 49.71355727 49.98049717 56.36182928 50.02587891 63.01025391 C50.06941969 69.42933229 50.09327595 75.84821275 50.10363007 82.26742744 C50.11100656 84.71338579 50.1254111 87.15933362 50.14704132 89.60520744 C50.17618368 93.0378222 50.18007242 96.46962469 50.17822266 99.90234375 C50.19979431 101.41070549 50.19979431 101.41070549 50.22180176 102.94953918 C50.16604109 112.54619492 46.74822365 120.46671716 40.33740234 127.67211914 C34.05634753 133.77067357 25.6611736 136.25064099 17.03662109 136.61352539 C11.58800964 136.38617326 7.41667353 134.81152044 2.72412109 132.11352539 C1.78246094 131.60499023 1.78246094 131.60499023 0.82177734 131.08618164 C-4.6411606 127.72713227 -7.43607309 122.74038521 -10.27587891 117.11352539 C-10.80043419 116.1114933 -10.80043419 116.1114933 -11.33558655 115.08921814 C-12.71221732 110.73266863 -12.57911118 106.54603253 -12.58227539 102.00244141 C-12.59059891 100.98722412 -12.59892242 99.97200684 -12.60749817 98.92602539 C-12.63157596 95.57312171 -12.64036684 92.22041258 -12.64697266 88.86743164 C-12.65593931 86.53482505 -12.66506116 84.20221905 -12.67433167 81.86961365 C-12.69081722 76.98142092 -12.69852125 72.09329666 -12.70141602 67.20507812 C-12.70680515 60.94249461 -12.74450983 54.68055447 -12.79016018 48.41815281 C-12.8199024 43.60114693 -12.82713894 38.78429668 -12.82814217 33.96720695 C-12.83234858 31.65832504 -12.84479963 29.34944283 -12.86565971 27.04065132 C-12.89251935 23.81128675 -12.88776437 20.58342319 -12.87524414 17.35400391 C-12.89007843 16.40160324 -12.90491272 15.44920258 -12.92019653 14.46794128 C-12.87141783 10.04897786 -12.69894691 7.05081528 -9.86341858 3.53599548 C-6.29955917 0.19948902 -4.76096177 -0.01086978 0 0 Z " fill="#FCFDFD" transform="translate(34.27587890625,235.886474609375)"/>
<path d="M0 0 C0.91765137 -0.00315216 1.83530273 -0.00630432 2.78076172 -0.009552 C4.27760498 -0.00651566 4.27760498 -0.00651566 5.8046875 -0.00341797 C6.82191895 -0.00437469 7.83915039 -0.00533142 8.88720703 -0.00631714 C11.04264386 -0.00699908 13.19808272 -0.00514382 15.35351562 -0.00097656 C18.66541121 0.00437148 21.97717117 -0.0009211 25.2890625 -0.00732422 C27.37760447 -0.00666344 29.46614635 -0.00538228 31.5546875 -0.00341797 C32.55258301 -0.0054422 33.55047852 -0.00746643 34.57861328 -0.009552 C35.49626465 -0.00639984 36.41391602 -0.00324768 37.359375 0 C38.17132324 0.00079559 38.98327148 0.00159119 39.81982422 0.00241089 C41.6796875 0.12939453 41.6796875 0.12939453 42.6796875 1.12939453 C42.77588191 2.82498156 42.80156409 4.52460293 42.79994202 6.22291565 C42.80131668 7.32654449 42.80269135 8.43017334 42.80410767 9.56724548 C42.79871475 11.39927269 42.79871475 11.39927269 42.79321289 13.26831055 C42.79335892 14.54617432 42.79350494 15.82403809 42.7936554 17.140625 C42.79394335 20.65493044 42.7880469 24.16920203 42.78108144 27.68349957 C42.77484762 31.35238809 42.77424408 35.0212773 42.77305603 38.69017029 C42.7699428 45.64229888 42.76172952 52.59441183 42.75170654 59.54653352 C42.74054516 67.45934233 42.73503489 75.37215187 42.73001111 83.28496659 C42.7195469 99.56645318 42.70120152 115.84791822 42.6796875 132.12939453 C26.8396875 132.12939453 10.9996875 132.12939453 -5.3203125 132.12939453 C-5.34285922 115.06638559 -5.36129149 98.00338929 -5.37212467 80.94036961 C-5.37728771 73.01826508 -5.38433055 65.09617044 -5.39575195 57.17407227 C-5.40569856 50.27164816 -5.41216587 43.36923122 -5.41440099 36.46680015 C-5.41570814 32.80978792 -5.41879424 29.15279617 -5.42604256 25.49579048 C-5.43405598 21.41995447 -5.43430365 17.3441544 -5.43383789 13.26831055 C-5.43743317 12.04695908 -5.44102844 10.8256076 -5.44473267 9.56724548 C-5.443358 8.46361664 -5.44198334 7.35998779 -5.44056702 6.22291565 C-5.44148881 5.2577984 -5.4424106 4.29268114 -5.44336033 3.29831791 C-5.22271321 -0.59095578 -3.434338 0.00336516 0 0 Z " fill="#BB99F3" transform="translate(313.3203125,311.87060546875)"/>
<path d="M0 0 C16.4446733 -0.02390968 32.88934055 -0.04125172 49.33402729 -0.05181217 C56.97846898 -0.05685711 64.62289942 -0.06369913 72.26733398 -0.07543945 C92.4039803 -0.10547169 112.54011158 -0.09251817 132.67662907 -0.00942707 C135.04082369 0.00016564 137.40502052 0.00894027 139.76921844 0.01767731 C149.22320284 0.05436812 158.67654029 0.11752358 168.13011742 0.21280098 C171.09218812 0.24200055 174.05410188 0.26216531 177.01629066 0.27427483 C181.10398131 0.29155184 185.19068321 0.3405239 189.27807617 0.39282227 C190.48489485 0.39385767 191.69171352 0.39489307 192.93510246 0.39595985 C199.23586289 0.50648763 203.25002864 0.69127354 208 5 C211.92511491 9.57882377 212.58527744 13.3938577 212.49609375 19.25 C212.49754898 20.02633789 212.49900421 20.80267578 212.50050354 21.60253906 C212.49885091 23.23636648 212.48736106 24.8702105 212.46655273 26.50390625 C212.43758304 28.99286591 212.4459591 31.47969384 212.45898438 33.96875 C212.45274623 35.56251026 212.44435469 37.15626386 212.43359375 38.75 C212.43652939 39.48766602 212.43946503 40.22533203 212.44248962 40.98535156 C212.34433324 46.40947579 211.21893512 50.62297281 207.46484375 54.64453125 C203.58541334 57.61115451 201.54625205 59.12593238 196.69735718 59.12025452 C195.34276146 59.12231651 195.34276146 59.12231651 193.96080017 59.12442017 C192.9674617 59.12082489 191.97412323 59.11722961 190.95068359 59.11352539 C189.90675949 59.11367142 188.86283539 59.11381744 187.78727722 59.1139679 C184.32430977 59.11326922 180.8613956 59.10547891 177.3984375 59.09765625 C175.00232981 59.09579191 172.60622173 59.09436808 170.21011353 59.09336853 C163.89391025 59.08954461 157.57772986 59.07971538 151.26153564 59.06866455 C144.82019358 59.05844774 138.37884783 59.05387033 131.9375 59.04882812 C119.29165689 59.03809302 106.64582966 59.02120945 94 59 C95.11361186 56.75076485 96.22957815 54.50275055 97.34692383 52.25537109 C97.66026924 51.62187241 97.97361465 50.98837372 98.29645538 50.3356781 C100.51854152 45.8726107 102.88517134 41.74290704 105.6875 37.625 C106.1012085 37.01688477 106.51491699 36.40876953 106.94116211 35.78222656 C123.93513808 11.06486192 123.93513808 11.06486192 133 2 C67.165 1.505 67.165 1.505 0 1 C0 0.67 0 0.34 0 0 Z " fill="#B0D852" transform="translate(232,57)"/>
<path d="M0 0 C1.22199998 0.00129972 1.22199998 0.00129972 2.46868682 0.0026257 C3.75712103 -0.00183098 3.75712103 -0.00183098 5.07158422 -0.0063777 C7.97273989 -0.01510437 10.87385449 -0.01657628 13.77502227 -0.01806521 C15.84584939 -0.02269064 17.91667565 -0.02771492 19.98750091 -0.03311038 C25.63015911 -0.04626421 31.27280541 -0.0526853 36.91547656 -0.05712104 C40.43774936 -0.06004737 43.96001888 -0.06415135 47.48229003 -0.06862521 C58.4936584 -0.08230888 69.50501929 -0.0919709 80.51639557 -0.0958271 C93.24371651 -0.10030815 105.97093007 -0.11785465 118.69821835 -0.1468277 C128.52413991 -0.16842217 138.35003122 -0.17853021 148.17597628 -0.17986822 C154.04978516 -0.18091799 159.92349323 -0.18686197 165.79727721 -0.20468783 C171.3228227 -0.22112958 176.84819117 -0.22334297 182.37375236 -0.21454883 C184.40348002 -0.21377632 186.43321704 -0.21814914 188.4629209 -0.22800708 C191.23108733 -0.24066441 193.99862098 -0.23488361 196.76678252 -0.22442508 C197.57252629 -0.23248148 198.37827005 -0.24053789 199.20843029 -0.24883842 C203.77448843 -0.2084136 206.76626642 0.26774025 210.37170196 3.1430676 C212.82033446 6.81601635 213.20353633 9.87575725 212.37170196 14.1430676 C209.83716539 17.36261405 208.25872891 18.84739195 204.37170196 20.1430676 C201.6119479 20.24762587 198.87701381 20.2952512 196.11686492 20.29696774 C195.2650726 20.30135 194.41328027 20.30573225 193.53567606 20.3102473 C190.67071308 20.32364207 187.80578086 20.32981565 184.94079375 20.33593869 C182.89099782 20.34383901 180.84120328 20.35210792 178.79141021 20.36071897 C172.05126056 20.38694332 165.31110469 20.40224527 158.57092071 20.4165051 C156.25216774 20.42186428 153.93341481 20.42724178 151.61466193 20.43263745 C141.97162421 20.45426521 132.32858817 20.47300322 122.68553233 20.48425984 C108.85656574 20.50050816 95.02787971 20.53370877 81.1990189 20.59066069 C71.48004903 20.62932537 61.76115432 20.64888833 52.04210955 20.65418041 C46.23472372 20.6578381 40.42763711 20.66990435 34.62033439 20.70228314 C29.15787399 20.73230307 23.69589482 20.73869716 18.23336959 20.72689939 C16.22823522 20.72667816 14.22307891 20.73502396 12.21802115 20.75255322 C9.48059542 20.77518324 6.74492388 20.76697887 4.00748992 20.75106931 C3.21380513 20.76495139 2.42012035 20.77883348 1.60238451 20.79313624 C-2.43617692 20.73529321 -4.90732454 20.31516729 -8.1067555 17.74764562 C-11.28860734 14.46101403 -11.70231825 12.70633652 -11.94470429 8.2993176 C-11.42600636 4.76448727 -9.3666978 3.22946741 -6.62829804 1.1430676 C-4.83288355 -0.6523469 -2.39127921 0.0125156 0 0 Z " fill="#27A2CC" transform="translate(232.6282980442047,144.8569324016571)"/>
<path d="M0 0 C15.51 0 31.02 0 47 0 C47 29.37 47 58.74 47 89 C31.49 89 15.98 89 0 89 C0 59.63 0 30.26 0 0 Z " fill="#FC7C9F" transform="translate(241,355)"/>
<path d="M0 0 C3.73286067 0.90956644 5.4535836 2.61916827 8.00390625 5.48828125 C8.37890625 8.30078125 8.37890625 8.30078125 8.00390625 10.48828125 C9.24140625 10.58109375 9.24140625 10.58109375 10.50390625 10.67578125 C16.16513545 11.98999517 20.76259763 14.62631833 24.00390625 19.48828125 C24.58857233 23.9150387 24.27537833 26.00663723 22.06640625 29.92578125 C18.42891199 32.96939889 16.77866482 33.13454628 12.203125 32.83203125 C9.3411702 32.38469196 6.73551484 31.43840598 4.00390625 30.48828125 C1.67178598 30.41305156 -0.66462485 30.39502249 -2.99609375 30.48828125 C-3.32609375 32.13828125 -3.65609375 33.78828125 -3.99609375 35.48828125 C-0.03379066 38.88598136 4.6030155 40.39034077 9.42773438 42.15039062 C16.6862455 44.9096441 21.0144802 48.76346536 24.82421875 55.4453125 C27.4416902 62.19700211 27.15721847 69.52804933 25.1484375 76.42578125 C22.25527487 82.90330577 17.38364178 88.53304217 10.81640625 91.46484375 C10.21828125 91.80257812 9.62015625 92.1403125 9.00390625 92.48828125 C8.69453125 93.60203125 8.38515625 94.71578125 8.06640625 95.86328125 C7.00390625 99.48828125 7.00390625 99.48828125 4.87890625 101.92578125 C1.12754676 103.96456358 -1.81777595 104.46546848 -5.99609375 103.48828125 C-8.99609375 101.30078125 -8.99609375 101.30078125 -10.99609375 98.48828125 C-11.30859375 95.67578125 -11.30859375 95.67578125 -10.99609375 93.48828125 C-11.82109375 93.42640625 -12.64609375 93.36453125 -13.49609375 93.30078125 C-19.17256545 91.98302889 -23.35128322 89.09197152 -27.49609375 85.05078125 C-29.40127697 81.79609325 -29.67859041 80.20409642 -28.99609375 76.48828125 C-27.15613111 73.56878333 -25.13287801 71.05667338 -21.99609375 69.48828125 C-17.19936664 68.93052228 -15.00431743 70.08003485 -10.9921875 72.58203125 C-7.12954455 74.3357165 -3.11868607 74.19091438 1.00390625 73.48828125 C3.7599992 72.06783544 3.7599992 72.06783544 5.00390625 69.48828125 C5.33838884 66.32044925 5.33838884 66.32044925 5.00390625 63.48828125 C4.50503906 63.28074219 4.00617188 63.07320312 3.4921875 62.859375 C-18.958992 53.22592455 -18.958992 53.22592455 -24.11328125 42.0703125 C-26.30080914 35.67227739 -25.73526946 29.27679875 -22.93359375 23.17578125 C-20.69731231 19.12491715 -18.13466923 16.69095484 -14.4921875 13.91796875 C-12.08109691 11.61389784 -11.8004112 8.64809981 -10.99609375 5.48828125 C-7.89725459 1.20459182 -5.42289198 -0.36015412 0 0 Z " fill="#6965F7" transform="translate(419.99609375,192.51171875)"/>
<path d="M0 0 C1.06274643 -0.00571014 2.12549286 -0.01142029 3.22044373 -0.01730347 C4.39653702 -0.01842133 5.57263031 -0.01953918 6.78436279 -0.02069092 C8.63058983 -0.02813828 8.63058983 -0.02813828 10.51411438 -0.03573608 C13.90066238 -0.04787137 17.28714841 -0.05531022 20.67371082 -0.05974674 C22.78890311 -0.06267452 24.90408993 -0.06677884 27.01927948 -0.07125092 C33.6352868 -0.08493457 40.25128168 -0.09459602 46.86730218 -0.09845281 C54.50756859 -0.10293083 62.14765585 -0.12046302 69.78786778 -0.1494534 C75.69025644 -0.17107269 81.59259471 -0.18115728 87.49502254 -0.18249393 C91.02142256 -0.18354212 94.54765438 -0.18945227 98.07401276 -0.20731354 C102.01007353 -0.22686061 105.94591087 -0.22250422 109.88201904 -0.21600342 C111.05001541 -0.2252182 112.21801178 -0.23443298 113.42140198 -0.243927 C114.4954277 -0.23835785 115.56945343 -0.2327887 116.67602539 -0.22705078 C117.60665928 -0.22851734 118.53729317 -0.2299839 119.49612808 -0.2314949 C123.57910346 0.35351874 126.21784201 2.26630392 129.09197998 5.14044189 C129.85856256 9.67754109 129.66924181 13.18497405 127.27947998 17.14044189 C123.96475293 20.17104949 121.25938734 20.26840636 116.94345093 20.29434204 C115.87795517 20.3029425 114.81245941 20.31154297 113.7146759 20.32040405 C111.96132179 20.32679398 111.96132179 20.32679398 110.17254639 20.33331299 C108.94143631 20.34149048 107.71032623 20.34966797 106.44190979 20.35809326 C102.35912399 20.38295084 98.27637518 20.39961456 94.19354248 20.41387939 C92.78733692 20.41924007 91.38113143 20.42461758 89.97492599 20.43001175 C84.12609813 20.45163277 78.27727299 20.4703701 72.4284153 20.48163414 C64.04852927 20.49787972 55.6691064 20.5310804 47.28939497 20.58803499 C41.39546215 20.62672855 35.50165326 20.64626593 29.60759676 20.6515547 C26.08779275 20.6552083 22.56848314 20.66722946 19.04881668 20.69965744 C15.12247342 20.73531545 11.19671246 20.73136865 7.27020264 20.72393799 C5.52292122 20.74854599 5.52292122 20.74854599 3.74034119 20.77365112 C-5.02863743 20.70555088 -5.02863743 20.70555088 -8.10665894 17.66647339 C-8.70110809 16.832883 -9.29555725 15.9992926 -9.90802002 15.14044189 C-10.23802002 14.81044189 -10.56802002 14.48044189 -10.90802002 14.14044189 C-11.20124868 11.20815527 -11.40806249 8.99552307 -10.90802002 6.14044189 C-8.47052002 3.20294189 -8.47052002 3.20294189 -5.90802002 1.14044189 C-4.24878947 -0.51878865 -2.28293849 0.00730899 0 0 Z " fill="#27A2CC" transform="translate(231.90802001953125,191.85955810546875)"/>
<path d="M0 0 C0.87059555 -0.00571014 1.7411911 -0.01142029 2.63816833 -0.01730347 C3.59559937 -0.01842133 4.5530304 -0.01953918 5.53947449 -0.02069092 C6.54610641 -0.02565582 7.55273834 -0.03062073 8.58987427 -0.03573608 C11.93139827 -0.050382 15.27287479 -0.05716393 18.61442566 -0.06268311 C20.93129478 -0.06843277 23.24816388 -0.07419053 25.56503296 -0.07995605 C30.42826052 -0.09047311 35.29147152 -0.09631109 40.15470886 -0.09979248 C46.38927264 -0.10527717 52.62361802 -0.12930187 58.85811329 -0.15776443 C63.64590089 -0.17637997 68.43363579 -0.18159585 73.22145653 -0.18312836 C75.51998272 -0.18615811 77.81850791 -0.19419743 80.11699867 -0.20731354 C83.33221205 -0.22435024 86.54689066 -0.22249934 89.76213074 -0.21600342 C91.18916824 -0.22982559 91.18916824 -0.22982559 92.64503479 -0.243927 C98.67453596 -0.20572779 102.26136058 0.55690807 106.65739441 4.95294189 C108.30780308 7.99316839 108.39217468 9.71994021 107.84489441 13.14044189 C105.770544 16.56590177 103.72712855 18.84636385 99.84489441 20.14044189 C98.40958588 20.23901725 96.97022184 20.28386347 95.53157043 20.29434204 C94.65118607 20.3029425 93.7708017 20.31154297 92.86373901 20.32040405 C91.90055252 20.324664 90.93736603 20.32892395 89.94499207 20.33331299 C88.92846054 20.34149048 87.91192902 20.34966797 86.86459351 20.35809326 C83.49605398 20.3829346 80.1275565 20.39945806 76.75895691 20.41387939 C75.0348163 20.42186491 75.0348163 20.42186491 73.27584457 20.43001175 C67.1947013 20.45673487 61.11357852 20.47611451 55.03239441 20.49053955 C48.74502787 20.5072064 42.45818355 20.55200421 36.17101479 20.602911 C31.34119548 20.6365239 26.51150121 20.64811034 21.68157578 20.65376663 C19.36348341 20.66049304 17.04539966 20.67575087 14.72742081 20.69965744 C11.4857054 20.73118965 8.24541359 20.7313635 5.00358582 20.72393799 C4.04444778 20.74034332 3.08530975 20.75674866 2.09710693 20.77365112 C-2.51793834 20.73032254 -4.49332543 20.65985751 -8.2275238 17.72897339 C-11.26279211 13.65294007 -11.67631946 11.26571164 -11.15510559 6.14044189 C-7.68208809 1.93626282 -5.38727682 0.02112504 0 0 Z " fill="#28A2CC" transform="translate(232.1551055908203,238.85955810546875)"/>
<path d="M0 0 C15.51 0 31.02 0 47 0 C47 15.51 47 31.02 47 47 C31.49 47 15.98 47 0 47 C0 31.49 0 15.98 0 0 Z " fill="#66CBD0" transform="translate(376,397)"/>
<path d="M0 0 C0.33 0 0.66 0 1 0 C0.97268799 1.2876123 0.94537598 2.57522461 0.91723633 3.90185547 C-0.04416459 38.28149105 -0.04416459 38.28149105 11.36474609 70.13476562 C13.09506628 73.1665718 14.68700307 76.24809158 16.26953125 79.359375 C24.85412764 96.01489409 35.08195332 110.71473465 46 126 C46.33 84.42 46.66 42.84 47 0 C47.33 0 47.66 0 48 0 C48 43.23 48 86.46 48 131 C32.16 131 16.32 131 0 131 C0 87.77 0 44.54 0 0 Z " fill="#6864F0" transform="translate(308,313)"/>
</svg>
